# xmcd
#
# Track frame offsets:
#	150
#	9663
#	26518
#	42147
#	62986
#	80893
#	95296
#	106529
#	143063
#	158748
#	173478
#	186871
#	217017
#	243025
#
# Disc length: 3721 seconds
#
# Revision: 0
# Processed by: cddbd v1.5.1PL2 Copyright (c) Steve Scherf et al.
# Submitted via: SynApp - FreeCDDB Version: 2.0
#
DISCID=ac0e870e
DTITLE=Ande Rieu - Romantic Moments
DYEAR=1900
DGENRE=A Cappella
TTITLE0=Espana Cani
TTITLE1=Barcarole
TTITLE2=My Heard Will Go On
TTITLE3=The Last Rosesn Of Summer
TTITLE4=Der Zigeunerbaron
TTITLE5=Moulin Rouge
TTITLE6=Lied an den Mond
TTITLE7=Geschichten aus dem Wienerwald
TTITLE8=Adieu du kleiner Gardeoffizier
TTITLE9=Ich tanze mit die in den Himmel hinein
TTITLE10=Greenleeves
TTITLE11=Adagio
TTITLE12=The Skaters Waltz
TTITLE13=Emperor´s Waltz
EXTD=
EXTT0=
EXTT1=
EXTT2=
EXTT3=
EXTT4=
EXTT5=
EXTT6=
EXTT7=
EXTT8=
EXTT9=
EXTT10=
EXTT11=
EXTT12=
EXTT13=
PLAYORDER=
